<svg width="1500" height="1000" viewBox="0 0 1500 1000" fill="none" xmlns="http://www.w3.org/2000/svg">
  <defs>
    <linearGradient id="wall" x1="750" y1="0" x2="750" y2="1000" gradientUnits="userSpaceOnUse">
      <stop stop-color="#FBF9F6"/>
      <stop offset="1" stop-color="#EBE2D7"/>
    </linearGradient>
    <filter id="frameShadow" x="450" y="40" width="620" height="900" filterUnits="userSpaceOnUse">
      <feGaussianBlur stdDeviation="28"/>
    </filter>
  </defs>
  <rect width="1500" height="1000" fill="url(#wall)"/>
  <rect y="844" width="1500" height="156" fill="#DDD2C5"/>
  <rect x="254" y="844" width="992" height="30" rx="15" fill="#CFC1B2"/>
  <g filter="url(#frameShadow)" opacity="0.16">
    <rect x="500" y="105" width="500" height="760" rx="22" fill="#7F7265"/>
  </g>
  <rect x="500" y="105" width="500" height="760" rx="22" fill="#F7F4EF"/>
  <rect x="520" y="125" width="460" height="720" rx="12" fill="#ECE4D9"/>
  <rect x="520" y="135" width="460" height="700" rx="4" fill="#FFFFFF"/>
  <path d="M284 262C351 236 409 232 478 251" stroke="#D3C4B1" stroke-width="12" stroke-linecap="round" opacity="0.75"/>
  <path d="M1033 719C1095 744 1155 751 1220 734" stroke="#CDBEA9" stroke-width="12" stroke-linecap="round" opacity="0.75"/>
  <ellipse cx="1270" cy="244" rx="52" ry="52" fill="#E3D8CB" opacity="0.75"/>
  <ellipse cx="1269" cy="243" rx="28" ry="28" fill="#F8F4EE"/>
</svg>
