<svg width="1500" height="1000" viewBox="0 0 1500 1000" fill="none" xmlns="http://www.w3.org/2000/svg">
  <defs>
    <linearGradient id="bg" x1="180" y1="110" x2="1310" y2="900" gradientUnits="userSpaceOnUse">
      <stop stop-color="#FBF7F1"/>
      <stop offset="1" stop-color="#EEE6DB"/>
    </linearGradient>
    <filter id="shadow" x="360" y="170" width="780" height="640" filterUnits="userSpaceOnUse">
      <feGaussianBlur stdDeviation="26"/>
    </filter>
  </defs>
  <rect width="1500" height="1000" fill="url(#bg)"/>
  <rect x="92" y="86" width="1316" height="828" rx="38" fill="#FFFFFF" fill-opacity="0.32"/>
  <g opacity="0.55">
    <path d="M205 205C252 149 310 122 379 118" stroke="#7D9278" stroke-width="10" stroke-linecap="round"/>
    <ellipse cx="245" cy="173" rx="34" ry="17" transform="rotate(-36 245 173)" fill="#A9B8A1"/>
    <ellipse cx="288" cy="150" rx="32" ry="16" transform="rotate(-15 288 150)" fill="#B7C3B0"/>
    <ellipse cx="338" cy="136" rx="28" ry="15" transform="rotate(8 338 136)" fill="#96A78D"/>
    <ellipse cx="182" cy="258" rx="28" ry="14" transform="rotate(-64 182 258)" fill="#AEBCA6"/>
    <ellipse cx="219" cy="226" rx="26" ry="13" transform="rotate(-42 219 226)" fill="#90A387"/>
  </g>
  <g opacity="0.6">
    <path d="M1315 820C1252 760 1195 728 1140 705" stroke="#788E73" stroke-width="10" stroke-linecap="round"/>
    <ellipse cx="1258" cy="771" rx="33" ry="17" transform="rotate(22 1258 771)" fill="#9CAE95"/>
    <ellipse cx="1214" cy="740" rx="29" ry="15" transform="rotate(-8 1214 740)" fill="#B7C4AF"/>
    <ellipse cx="1165" cy="718" rx="28" ry="14" transform="rotate(-24 1165 718)" fill="#8FA384"/>
    <ellipse cx="1312" cy="843" rx="30" ry="14" transform="rotate(58 1312 843)" fill="#A7B6A0"/>
  </g>
  <g opacity="0.38">
    <circle cx="1188" cy="204" r="18" fill="#F6DDDA"/>
    <circle cx="1218" cy="232" r="13" fill="#EFCFCB"/>
    <circle cx="1161" cy="239" r="12" fill="#F3E3DF"/>
    <circle cx="321" cy="779" r="15" fill="#EACFD1"/>
    <circle cx="356" cy="804" r="11" fill="#F4DEDF"/>
  </g>
  <g filter="url(#shadow)" opacity="0.28">
    <rect x="440" y="255" width="620" height="460" rx="14" fill="#9E907E"/>
  </g>
  <rect x="430" y="245" width="640" height="460" rx="10" fill="#F8F3EA"/>
  <rect x="462" y="277" width="576" height="396" rx="4" fill="#FFFFFF"/>
  <path d="M1096 229C1134 259 1169 262 1217 248" stroke="#DBC4A1" stroke-width="8" stroke-linecap="round"/>
  <path d="M1162 252C1170 282 1188 304 1219 325" stroke="#DBC4A1" stroke-width="8" stroke-linecap="round"/>
</svg>
