<svg width="1500" height="1000" viewBox="0 0 1500 1000" fill="none" xmlns="http://www.w3.org/2000/svg">
  <defs>
    <linearGradient id="wall" x1="750" y1="0" x2="750" y2="1000" gradientUnits="userSpaceOnUse">
      <stop stop-color="#FAF6F0"/>
      <stop offset="0.62" stop-color="#F1E7DB"/>
      <stop offset="1" stop-color="#E3D5C6"/>
    </linearGradient>
    <filter id="panelShadow" x="430" y="90" width="650" height="820" filterUnits="userSpaceOnUse">
      <feGaussianBlur stdDeviation="24"/>
    </filter>
  </defs>
  <rect width="1500" height="1000" fill="url(#wall)"/>
  <rect y="760" width="1500" height="240" fill="#E5D6C7"/>
  <ellipse cx="760" cy="814" rx="314" ry="42" fill="#CDBBA7" fill-opacity="0.55"/>
  <path d="M544 844L660 350" stroke="#B99053" stroke-width="12" stroke-linecap="round"/>
  <path d="M981 848L868 358" stroke="#B99053" stroke-width="12" stroke-linecap="round"/>
  <path d="M624 640L900 643" stroke="#B99053" stroke-width="10" stroke-linecap="round"/>
  <g filter="url(#panelShadow)" opacity="0.22">
    <path d="M542 184L989 207L958 818L520 796L542 184Z" fill="#89725F"/>
  </g>
  <path d="M540 170L980 190L960 820L520 800L540 170Z" fill="#F2ECE3"/>
  <path d="M576 204L940 221L924 781L558 764L576 204Z" fill="#FFFFFF"/>
  <g opacity="0.56">
    <path d="M336 836C391 769 434 735 500 708" stroke="#758A72" stroke-width="10" stroke-linecap="round"/>
    <ellipse cx="401" cy="783" rx="34" ry="16" transform="rotate(-20 401 783)" fill="#9CAF98"/>
    <ellipse cx="451" cy="749" rx="30" ry="15" transform="rotate(6 451 749)" fill="#B8C4B1"/>
    <ellipse cx="495" cy="726" rx="24" ry="12" transform="rotate(31 495 726)" fill="#8BA07F"/>
    <circle cx="362" cy="836" r="18" fill="#F3DEDE"/>
  </g>
  <g opacity="0.54">
    <path d="M1176 842C1127 776 1087 742 1035 716" stroke="#768D74" stroke-width="10" stroke-linecap="round"/>
    <ellipse cx="1119" cy="792" rx="33" ry="16" transform="rotate(16 1119 792)" fill="#A4B49B"/>
    <ellipse cx="1076" cy="756" rx="28" ry="14" transform="rotate(-12 1076 756)" fill="#B7C3AF"/>
    <ellipse cx="1039" cy="729" rx="24" ry="12" transform="rotate(-32 1039 729)" fill="#8EA382"/>
    <circle cx="1144" cy="840" r="17" fill="#F3E0DD"/>
  </g>
</svg>
